<mxfile host="app.diagrams.net" modified="2024-05-20T14:14:40.532Z" agent="Mozilla/5.0 (Windows NT 10.0; Win64; x64) AppleWebKit/537.36 (KHTML, like Gecko) Chrome/125.0.0.0 Safari/537.36" etag="0cHneIIE7WLpPNR7d5VC" version="24.4.4" type="github">
  <diagram name="ZAG Flow Diagram" id="PLWWnFe8UmUTLnAZz9z6">
    <mxGraphModel dx="1122" dy="525" grid="1" gridSize="10" guides="1" tooltips="1" connect="1" arrows="1" fold="1" page="1" pageScale="1" pageWidth="827" pageHeight="1169" math="0" shadow="0">
      <root>
        <mxCell id="0" />
        <mxCell id="1" parent="0" />
        <mxCell id="VL68fDzAvVWCmi46imba-7" style="edgeStyle=orthogonalEdgeStyle;rounded=0;orthogonalLoop=1;jettySize=auto;html=1;entryX=0;entryY=0.5;entryDx=0;entryDy=0;" edge="1" parent="1" source="VL68fDzAvVWCmi46imba-4" target="VL68fDzAvVWCmi46imba-6">
          <mxGeometry relative="1" as="geometry" />
        </mxCell>
        <mxCell id="VL68fDzAvVWCmi46imba-4" value="ZAG" style="rounded=0;whiteSpace=wrap;html=1;" vertex="1" parent="1">
          <mxGeometry x="70" y="110" width="120" height="60" as="geometry" />
        </mxCell>
        <mxCell id="VL68fDzAvVWCmi46imba-9" style="edgeStyle=orthogonalEdgeStyle;rounded=0;orthogonalLoop=1;jettySize=auto;html=1;entryX=0;entryY=0.5;entryDx=0;entryDy=0;" edge="1" parent="1" source="VL68fDzAvVWCmi46imba-6" target="VL68fDzAvVWCmi46imba-8">
          <mxGeometry relative="1" as="geometry" />
        </mxCell>
        <mxCell id="VL68fDzAvVWCmi46imba-6" value="Anypoint Partner Manager&#xa;B2B" style="shape=image;verticalLabelPosition=bottom;verticalAlign=top;imageAspect=0;aspect=fixed;image=data:image/png,iVBORw0KGgoAAAANSUhEUgAAAKgAAACnCAYAAACFHRdhAAAACXBIWXMAAC4jAAAuIwF4pT92AAATWklEQVR4Ae1dPXIbyRVuuDZwRmV2JlT5AKRPIGzmjNjIIaDM2UInEHUCgbmrhMmcmTyBiRuAJ9hB5pDIXQVXS19jm8P3ul/3/PXM9FeFEneBAXpmvnn//d7sfD6rjIxU8VO+MzLMinKulJrjwzdKqXeVA9/h/2s8EV9a4qXOqzn1fgaBLEErmBXlAkSbW/++b+nnnkHaA17leTU/tPRbg8SkCQqpuMBLk/E6gWVp7CGF9etwXs1fElhTL5gcQWdFuQQhly1KxqZhCPswNQk7eoLOivIdyGiIeZXAsurgqImqlNpNgayjJShsyTWI2TQpT7AZq3iCzTon3vvQ8BqURdbteTUvW/j+3jEqgkJaalJuGlDfz8Zxwb8vTdiDVjTAvBYNOWJ7SNVdze9JCqMgKG76nVJqFfkVR+OQ6H/7UJ14uG4qTluM5NfnsoNUHbxzNWiCQo1raXkbeOjJOB0gZJLqcVaUN5b9HBph0Oe4HTpRB0lQ3LhtoF13AiG1J/zQ4vJagRUSWwY+kIMm6qAIGqnKH0HK0dhmuA7LQFv7BJLetby8RjEIgsI+0zfjs/AQIzV2Y/VuDaxohfSh1TbqZihaJHmCIrC+FUoKffHvxubJSgCpaiIYEudKe/3r1B/gZAkKqbkT2lt7qK/B2ZZNw9I2EqImr/aTJCik5k5wgQelrrpEIFF1zHeZojRNiqABUvMEYk5OlYcC11RLyF89h55gHm2TWn8qBEXo6EFga97jQk62wicGAaG5R9imSVzfJAg6K0qthr56PvaMC5frJWtgVpRrENWl9o9Q+b1f614JCvWz9YRIklQ9Q4bQlErCjOqNoLhIT54UXpaaLULojN6fV/NNb2vsg6BCe7PXCzMVIH764BEUBaRp53Zp5wQFOZ8cT+0JUjOHjjrErCi3Hk9fa7NF1yT9Q5c/BgPdRU59EW4yObsHtNVHCAgKWsI+wTTrDJ1JUJDzm+MjSYU3pgqBhutUknZCUAE5i/Nqvm59IRkiCBzYzkjauooXkPNjJmdaAPEWqHGg0Jm6b1WCohTsP46PfMzpyrQxK8qdI07duiRtTYJaoSQOmZwDALRbway0dUnaCkERW3MZ2pmcA4KApK3dy8YJiqfpIZNzXPCQ9BamQONoQ4K6shKZnAMGSPrInMEKDnGjaJSgyEZw5VxfMjlHgTWcIwrf4Hs0hsa8eBQe/Jt5O8c5RwSYcQemlkJnouZNefaNSFA4RZx0fM7kHBdAviWTFr3yRG+C0JSK55yiIwK+GSMDSiA5wfMBRei1UZugs6K8czhFy5xbHy9Q1POFOcGvTdijtQiKBXDNFD7lQuPxA1uWuZRobae4rgTlFvCYt2hMCpw9eg0NG41ogjpU+8lhm2SMEDDjuHv+uY6qjyIovHZOtWe7c4KAPcplmqK1aawE5VR7kWcATRobRG6q+BCbZQomKALyVLbohAVmTBTQnBwHtjFVTzESlBPXvez6y0gLUPVUvv4qRoAFERRimkpv7XOePcPChvHqP8N/EUNMUKsLCIWs2jMuQJc8jitBYacQCcq18StyQD6DwJaRoqsQKSoiqNVrksKgep5ndAOPwyTmjFSCctPavoy9B3xGPOCXUGEnsRSVEpRi/KlOADZjMuCkpchv8RLU4bk/5LBShg8OKbqWxEUlEpTLAEzK9tR7/LHPfzTQBMF5NbpNgwClaa8kNRvOLR+wE34j3upkC4c1uEvq9bUxUbiKIyZjRJs3IIQ+L0lm5V3EGMQYPCPZ0niqGpKyJPyY43k1d95bH0G5lnw/d5FznxVl2cAU4DYQve8GD90h0bn1entOK9I0lks+FU9JyeeOyLlIlJwK5IpV9+tEyalQv9mWuuc0jlMTswRFUQh1IbPn/gNt2219oZU2NghHUpX3S9dxLgnKMTs3l82IBVWvceUqxfuJ+p8waqkJEEUCoSVuk5aCbdfG+rYtOypHz/6dtkwqV+fBxqFDTrBFq5p5yZ0/SVCHfdW79OxjruSsKNt+KMuezqvrn1TgULWdIzsOh1PxlF1wyr3jMxoAySH4PG8QQtBMzozagJCjqpxkBEWYgfLeM0EzmgJlU5NmJWWDcm5/kpvhEC/lnJgTjO9Xw2cFM4G+9D1DHZ7txnFer+a8C8YbpjQh+oFY53udxKhWx1EqnmLyPsXCEMGUtCsQcWMdsxaMpv4cm3e38ttBWxsq37HA4AnXeX2u2G1bz+zNK7RHjF5Xg+CE3RvhSBGUymenupV4LszKLJi/pceEYIvwzW+6uUVk/3bpb9vJAinxeicopCTVY/RN8uOVindIjVQJKpXq9ucOnunKBr4YzJq5XvYDrptbbHSnt0DVGnNe0mNSKTCn5jC9uZ5VCUqm71JtxoC9UFw3C4NTpTRw5+gQbFBUCEVJwfcgY/VVhVGtIfu2JGt8rgS37xxjDA1S2gFBXY/3VY1TdZIogvouVK/QZX+eBv4H237G3zcObfFCbAJsIj99Le2uIVjjG6Gh1wz7kqsRKBPbnsMJvRv7PQlBh9DK5p3rxlTVn3UjSeLpzFHlZv6voXVyUvTN2iFJ5ozN+KIlMuG4vnPYr/qYXSrOrr6+s6I8ET7EwkVQymtMelOcZxKagrf7i8mCCesxtd14Y5H0v0qpv9RY5hEhngPjNL1ai2BWpsadvUbPjACDdWJVWAfCKX+1vosN6qgDTHbPO9YscXjsDVqSeszqdgRKgu5RuFJ92XbgCe+FjhhfC4pTqmuUbEK7TmzbCsUt1gYl1V3i3eo6nV1ewRMVzIcztIHmuYu0+/o8ry5BXZtXEtUmKPVk+bzCvnHAGn0S8anyN9fb1EZUxgWSsm5a+EG4RlsCPQj2ZJ0S04jkWrSJY2xlrtzO+QV9wl68/hcqy7UB7ZWk0xpB26RQj9QxL0gj9mZ7w1bVa3Sp7a1tNuhNfCgL5CIFZTXlmwBcTuN3oeKToL2dDIhEvfUqDIGQkHPbAPHdTUi5VhGzRsRuB9NlEAKGeusiOAYnQauAo7RzOBW6V+W6Uixy52iGpnF/Xs177dgHr3zrmOa2s9dodR/knMaUikVsHIlzvIxytzNJQzXMfeGYW3ujH0yCzx679dc2BqNKgYdOh4y4Xa1XWKP9EG08EY2rNmZpNgCnKWUTlLrJSUtQkE1SLGKbANIwS59FFVKTJea8htAd5SIsffviU++9JHVkSuZvF/o8d+kabQEiPSa1sCG17ouUb2NefGeAp33v+b1Xc5tgg3GT0Qz2fTobWKOkWMSOw24Ex9wn2GzY+WD5nKTkoR0FpDs5G/pNzvq8mpuGWWSYKYWbqFvQBBaL+ApMUisWEWHQEtQAhKJU8kvXcb8mO8Y5sniTaRr8XYI6LmbyFwLe9jfH+1rtLQxRJYUYs6LUW1xinYlLRmdWlI8I7QRfR18RjP7u82q+tP7bhGbYflazoux9r1UojATl8vCpVzLduMgJXFf6SUkKMSST0XSV1Ln6qqQbb2O2fuC3fUUwt5U13gmarQWPgekbhqAkEQfQsFV60+2bIlW99jF/DlgTBR135UrtfL8t/VzT350EvhN0wIMQYsJM0jCL/bk/BqyJw/uAKdBthc9SKxbxYgxhpo+ej+3toguEcFyhKX0TP1UclCYq6k/S3DrW6NtrdV9JW2484bNjNeU7BIwhzBRcIIEcdkiuvW5F/d44S1IbEC3WxelWEG9UPfTVGAhqDRnjbs6uWiAB23rjsNu2lQp4SoIWzIPxL6XUn/D3ESVuwUF/EHnD2MymJPCpcoyL1C9YS2oqnju/7/ARdAgGta9Y5ANaqnwPr4Ccvr6Y+hhfH/6Sen9WlH9DjvwFD0dbfexv7TWicOSr56sXuBYpqXlKSFweIpuge6IiO2mCgmySxrKxnUWC89aQUHWllLSPvb1GSYHJVbWeNnWMIpOUMWg4VbxNUCpMkbTRDfUmaSxhB+p3gr1WfY95lK7RtpMl6+1kQksgKE1BqvihxkIXjv1FCnuS7C0iJTJQLmei1wYHgjUqrLG0jnmYFeVfHaq+TK2aXlKvYBOUuiFdTG6rBRApSNrhxiadkwZJt5wKpJIrjsYQirm/1I7YLv0O71Z3m6DcFtA3TUVTBLzY6gkfuIYJeHrJVucphGJ8TXaJIpg5nB9XsUh1hCXV2aNLgnq3unsJigUPtv3NrCg/EnFQ48lS9o+uL130SVJEJ3xNdq8RJzWaQFIsskJ/plTsUOpheHXdL04SnkTKME/aURJU/mwJtefa0XmVgPqP2V8klXwpbZqTE5R6E0h65J8nb32y1aAF1/aI55AUY0uQSjjbfIk5pm9QPs4rbV3NJHm7jaUIR49QcpuD1ZGEOjeqraEYlm0b7TWjaYUuaHGp+aIyEnwLicRpk2ONXlGNw1HK+UpIUgStgpy+kBpC7SqQUHoM9eAuZ0VJHf9PU1gCxy1qBntoQQvOJ6jApGeIunlXCerqejuZfTAEKIl6Lcjpf/9Mna0fIwYlQd+YXa9sUFzAI3Hg6Mq4AlHXzLkNrKifAihOvRGQVC6eUvNBzblGiCaIVW04O1k4phmKCEp5ee+HttmqYTSR9jwNqfNcyxCPO6LqQV1TwPosoBABnetsSMyTjScwf/BMcfOhwG9w7QadgHCwpa9raMQFNbZOtw1KkzxT0ZM3BEUOmGqJtxgCQYWdiauIUeHk3nl49sbj3yO0UzdzM488r+QAO5yq4SXjs1w9KPXh22zki6Clw8/6pQncRFox8TkBoeD8GZKg3JaPHRMkXmY7yg1EQnI4iQel3o+ciUVKUHyYCjf12nU4IwypNd6ALU2lN9n0q2vLB3XQ9QC8+dQnk0wZnHpntbKLoNxBqUvRQXXOmBgo7rDqXbm2HaM6m/Lm1z2T9MYTqolx5P7hUYetq8qW1DE3MtygM22IdVD1qk6fxrcvfkvstb7SNZg97m/x7f2Owd/bX/YFXNDfl9ePgWRMZFfghJqTR75tx0NV88kiwc4erQN+C5XoePQV0DgJisg+VQzc1VBSKpKQCgbVhKtncDsUvFpY0riByx51sS0i5ZhrnbU9NriOJtF4vQCSO5SpcZRMgPY2D4OzRLXF+YDNZW1mObZweqStYKrwTfOIQYk96XXO+w4SOMZGbKvH56GlGaWcOSgScLPz+ez/EN9wq04v94yRw9EE7XRezUXRFlFvJkgLShp9GECb8Iz+cMdoPnHRUUjzME4kD2pqREY3gPSkTJigvldignqkaK4Uz6iCc7aCZtaLbNDLh3lbVD8VqTVGzegJDp5ozz0oexXUHxRSlAqRpNCNIyMBIKzESs/QFcY0sOXCBr8mOIs8o3tsmJz7PiY9HkxQxMm+MG/nYuYJAwKK25oSlR6PbQG+ZdKQ18SmtYzpgBNQ0WPAowhqtVmh8Dmr+ukB/UypzXDHOv5J9BAFh8Ok8ZA32E0Hnn6mmzrRnbpTPtbMFov32R6dBiCIuKKPQlIQ4kItguLJ4PaZ3KK7W8a4wXWqPjZRN1x7ThJUPTec9WvO1Y8X6MnKDVJrZHBtI4O80MuS61j8kJ2m8cHTev1LU2WYTU6aWzL2qBb/u+w0jQfQit+YE3o0c1GbQGMERQCfs0e1GnjKJB0+oA05x+fYdIvJRmd1Qqx/Yt6+HkjzsQwGnvE9Wnsumy4YCqpmEn+pY24RQg+5PG9ggPY7OGYx/VI3pEShlWnHICC3H2jFTOTISBQgp2uK3cc2yKlaHse9dHj2maQDgTVikQsn3bfZxKMVFX/58t+fPO7ksrpPGB6bU3Vx/1olqJKR9JmZBpfRI1Igp2pZxX8HiLdwqHsTgprykIakgCB87+RUXRBUyUl6yBmn/oF63m8pkFN1oeJf/Zhf3St4hNmB6hjWXiLXNJPOfYZOCarkJC3q1hFmBN2TG5DTdU8+VYbXdoLOCWrgCeYrMxZ7iu0KuwRKIrkOIAa9abXeCKp+t3d883++NFl8kHG59hKVbubt9yYkeiWo+nGhzGgb1xO8F0yDy2j2mj8jt97rSJ3eCarkNpDK0rQeEMrbMaNgbCSTQEmCoOp3lXPn2HxlcIRtOqbpa60C13aDl0tqnqCpkomiJENQA6H6UVnty4Cg+52j0MNgjwc/qSl5yRFUyQ14gwId0/L4QQuoet8JiKlSNp2SJKhBgDRVmag/AIm5FtiZKlWpaSNpgqow29SgqRHYgwGu0VKoylWKtiaH5AlqAE9/K5QMCs7UFgMPRpmRgle+CRwycR/aRLZPDIagBlD7W6GkMNDq/6Gtqu8uAWlp1LgvLFe9BoMzgQZHUIMA79TGCTsS9etpMFLkh6RcoiJM4jjaGLTJM1iCGkQS1WBvkTWZcBWkpCajeYVISoOigXlOvWPwBDVAWGUTIWFs7FFppcladkVarH0OMt5EElJZk+LaGMjVC0ZDUINIx8GFZ0yFM5LoIpEk0gnS0BRim7/Nv/NIyV/FM+zyh7E5hKMjqA04VMvExlI3hSPMk92Ys2mjJqiBFSdc4N8mJGsfmAQpbUyCoFXA5jNkjbX3usAJJsUT1PfksmSTJGgVFmFv8GrCLozBMxy0Q2qRhb6QCUrAcmzmeNmOTV3zwDhdJV6dRgyGhkzQSCBaIN3Lf8gbAOOQCZqRLpRS/wcBnd7LuEVmHwAAAABJRU5ErkJggg==;" vertex="1" parent="1">
          <mxGeometry x="280" y="101.22999999999998" width="78" height="77.54" as="geometry" />
        </mxCell>
        <mxCell id="VL68fDzAvVWCmi46imba-8" value="SYSTEM API" style="shape=image;verticalLabelPosition=bottom;verticalAlign=top;imageAspect=0;aspect=fixed;image=data:image/png,iVBORw0KGgoAAAANSUhEUgAAAH8AAABqCAYAAACVpo47AAAAAXNSR0IArs4c6QAAAAlwSFlzAAAXEgAAFxIBZ5/SUgAAHXVJREFUeAHtnQmcVPWRx6vPmek5mBPkkBtFAS8Q1MRr1Rg08YommhijoOJiiEfWjclmV+InxpiNR9ZVCa4ESci6ksuYqDGJqBFU8FYQBUfkPoa5e2Z6+tpvvZ43/bp5Pc7BzLwe5v+Znu5+7/2v+lXVv6r+R4sMpoOWAi6n9XzhwoX+nVt3nhyKhtYtXbp0l9Pa19n2XHHFFWVer/d7rrjrOM0Tj8c3jB47egH9i3S2jN5+ztvbFXS1/HXr1klhQeG/e1ye8quuumolBPxTLBZb+8gjj1R3taz+eH7BVQsqml3NF8YkdqXE5dhoPJrrdrm1KYEdO3Y4StgcB35JSUk80hrJE7cc4RHP2Eg48hWXy1V5zdxrVseisZXhWPiNZcuWbe8PYDPViTR7t2zZMoX7FwYl+AXAHi8xKYzFY14YQMRRkCd74TjwtWlxV9zvEpc7Eovk8zU/HouXwgBTYYjLYYhdc66cs47rryJdrxQXF2+47777ajVfX6Zrr73WR5smRcPR0wH+TJVyt9tdGo1EAxFXxGO0RYEn8Ry8EPMnvjnnv+PAHzFiRHTrJ1tXQqLRXre3FJUvMVfME41FDUaAKcpcbtckCPr5eDQeqqut+5jh4W2+rw6Hw2thhsr7778/1BskXrBgQVFjY+NUt7hPjUViJyHZU6m3mDblwag5fE9IeRvoHrfHAD4u8SpP3PO89q032tXdMh2pkK688spipOgICHsuInMBxtIUPosyAlohta9xiXo8nhD3WxgW6lCxGwBnFZL498KSwrfvvffe5tQMXfs2Z86cQoA7DhY8GwY8hXom0rY82pIL2Cr9CRqaUk4DaI9wTw27t2DUJ2DKZ8nzIQZsn2uojnrrSPC1wZdcconH7/fnQ7Qy3s+AAS4B0JMZT/Oi0Sgf26md7B8XwSJCnmbAaeLGuzDCn/15/icfeuihyuSDn/5p7ty5E6nzfKo5l6ePpMz8NsCT2rK9CS7hfqJQl+ygGX/zRD1/DMVDr2Cw1jc0NDStWLHCUVKvjXUs+AlKGv9dMEJuAckdd093eVxfApRzUbXDeRek0fJoao9glDCgBGGWXW6P+ykAWbp46eJ3UzOkfrv66quPYjiZQ9nnkGcogOcjxfsBrrnUilfQAbuJ9qzFJnmytbH1OV++7xMs++DTTz/dK8NPaou7/y0bwG/vHUzg9/l8+UjTWF6zIfhFgHMMY6snRRuYOczegQ6quAlAd/LxD/je6i20iar5MAOMS0bxzAUAegjlBfieKMEy0piAw3RRPm9gGPoLbXgmFAq9Q5saJ0yY0Iz1z+Dv/GSSx/kttbQQ4rr3rNsTqPPXFed4c2ahDb7A7TPxCkapJAKGjrnJHGYvQR6AgtxIUxdtj8bFE4niYVhA149apg7tMIQOKxupb6U74v5r2BV+nSGphtxNixcvDicrzI5PJlmyo7U2rZw9e3YOVrTaBsMB/UTk90wwPglGOFQNLx0a2l/pxqJNeQq2CbiRT+LKLB9w8UWGnVVxd/yt5ubmfTU1NU1OV+s23Uu5lPXgW3rjZljIycvLC/Aa1traOg2GmAFDHA2YE3huKINzAMl1qxSnpzagI7zXkW8bLPMez7zG6+1IJPIh14K7d+9uBvBWrlkGgvSSsuf7/lTox7YTOJkGWDMAoCYQCDyHv17fzea4cRf9wWAwJzc3NwcNMATAR/AahuquAMgSxusCIPQzZiuQQe7twSDchirfwjNVeo12tGzdujX0/PPPdzkef92V142NeqL/xADki4fje3xeX2VYwpVLlixp6GafDng2R4BPkKYC4n+H3n0JUIogeozXO1jbv4EZnoBgO3rYc9dpp53mmTZtmgfDzIMke3C/3ISSjWJhkjgMEa2qqorgVER64Ja5cBGPoe2X0YNzYbrhWgHfo9ggzWigSvyDv3pzvMsXLVq02ai8H//1O/gEUUZgfT+MMj4FUAoYW40EE6ib1gj4m/n8NyT0CbTBa70VvesJBsq8Xpf39KhEz0ObfJZ2l6m3wNCR9CjQL1yPwORNMMZmfI2fwNTLe1JvT/P2K/iES3MIly5hBu9iwqOJ2Lc5mra1DGmJqZsGMYMwyJsQ7+/euPf54bHh7y1curClpwTobn4FHIk+nrafCWOeDOjjaGs+/ciljYlizb6YlVj6BEPXkm8hDHC/ebuv3/sVfMblr+OjL8Znzs1oQllaiMpsZShoxh1rhFA6ufMahH45T/Lejvgiu3rT3Zo/f34BYdoxaKcZtGMWUj2DusfShgCMmYvGSpnM4XrmRJ9gFHUfq70+72W0+9nMD/feHQtpe6+S9JKRGNe8efPywq3h5yDALFR7+iP2383WqgrVYcHjbqEsjelXoUY3UdYGPPj3XF7XR/jfO/Hpq8rKypq6soBCtRFjf2FRbtFQwrMjUdWTqWMqUE0C8PEwayHfcwE8px1wbW26lNv3IHmVvujED31/oThYPPveFT2bg0gW3PlPJjk7n+MAPKnToS0tLTO8Hu9KDKGcLhNO22BpOcAo90QYHtQNawWYMEDVc30v4O2h/Dqs7mpsizqYJAR4+oqhsn0879OpYxinhFexvnNvGNdLyRcAID9l+bnmQ0PpRA632lJXATfzme9aVFxa6cupTPq8Yl7uq/dkzLqvaqQegiR+pPIsCJlDUKZ7yUJ4xk41rPwMB8k587gMxUYYB2gazYuhKTR8q7WpZa+59YWjF3fhhum7qm03xpgG670wixEPgDG4nEgwU9cl3Mxs904LaIsfOlzA7YMDfFRyDpMnX0sJwdoRp7PXLIzQnkXVQWJCJsHgds+0P5z2AYzREgcW6LQqzK8GDeJyKd9vNa/11Xu/SD7jnAdJm2BV3Qe8w10B+4BX3oUCaSeSH+hCjgP2aNIPPWBFdrIgtY6zBaBOdinbHus/8AeB73de6T/w+73rgw0YBP8g5oFB8AfBP4gpcBB3fVDyB8E/iClwEHd9UPIHwT+IKXAQdz0Z3l22eZz4c65nzVGAecZeJclvWqpzv/TiPb1aRzYVHnbnFMjybQ/2dZt1UjGRfr39LskNzJdQS68PBW62Ww2r+6TX6zG75vT3GPP6u4vH9K7E2RAhKfnxeIW0thZIa+/vMNJe7iwYadOcg/hSH9A9nbpW8Im2a8B9MOieTqSB+n1Q9Q5UZDvRr0HwO0GkgfrIIPgDFdlO9GsQ/E4QaaA+Mgj+QEW2E/1KWvudeDirHzGcGP5ZvWmNcujLdHDMd+M6//R9AKeBDb6CaWzCFSngcLfRAb9MKPDI+CK/DM1xS47HJUU+t9SHY8LebNkXisnWYES2NEZlS3NEdjax+y5KIQOUGQYm+Ao4El6U45JZ5bnyuRF5MrMiTyYVecXndokXMD2865jHG6d4JIRfcY7wRRmhvjUu79WGZM3ekLywKyRv1IQkxFYQI5N140YWa4aBBT7YKJIj8j3y5bEFctHogBxe7JcAaDdF4rKhthVAW6WyISJbmyJs7YlLA9cLfcoQLilHGxya75VxBV6ZVuqXM4YHjNeNU2LyVnVIntzSLL/bEpSdQfaBKNeoRsjiNHDAB/Riv1u+PqFI5hxWIOMAUdOLu1sArUler26V7ajxEGCH26RbeUX3ZuhpLYqjBwZQraDaIZ+ydIiYUZYjZ4/MkxPL8wwtcs3hhfLYR42yjNcOyiOTVpOVKdnyX219RLy+ORLq0ZmFfU8EA8G4nDosV/7t6GI5vjwHcEUe/7hRVmwOyrrasAQBHC3OHk7+6fOdSVBG2Yf91hLAXpgyxCcXjM6Xi8cGpMDnkQ/qw3Lfe3Wy4pOghHWYycKhILvBh+gcaS03HFEkN08dguR7ZAWgP7ihXtbXRqQxqoZcG9LJnnYG+sQzZl6+qUYoQMrHFXrlGxML5YoJBYbj8KetTfLvb9YYhqIxFHS+9H5/MrGnXJtx0c3ni9tzrESTGxP7vXUdNQDVPTTHI3fPLJV5k4dgqUflljXV8rMNDVLZGJEm7htenYLeHeC1bjMv7xQnLRS4JxSXl3e1yAsYghNhhNmjAnL6IbnycUPYsCWySQNkJ/ggMSrglYc/WyHnYdQ9v6tZ5q/eJy8wvjdgxPUYdDuma2MEVQbKBNtxCZ/d3iIR6juP4eDzMMEWrq2vYZd4lgwB2RfhQ9WPxphbenK5nIUL9+vKBpm3ap+8WxeWFkXGlFb9rOJ6oJK1POpQr29nS1T+k3F//stVGIkii04sl2sPKzyw9R6o9tuUk13gQ/ByrPD7TyiTU4blyQOM7besrZUdgKA+ert6B/QijLQL0Ap4bz1PMNxEYgTnjspLGIyGgZeor56KV3zcJJe/sFfqWqPy4xml8jXsgUSDel51b5ZwIEjTm+1Llg24evLCj6eX4XoF5JGN9XL7WzVS04oOtko7YJyG5f/YyUPl4c9UyNn46j3SANTrwx/8wTEl8gvKfHBWKS4gfoCpVai7GWZ4HjtgLkNPHe25Bwb4HO6h0xkge8CH2HMnF8plE/IZa5vktjfqpFb9N7MHxse4XHd4kSw7ZaicwZCgQZubpxZxtgoIcb9biXq/PCEgF6JFKihPLf3HTx8mZw3PTYKrwwCFr4IBvvnKPrSNS+6dWSbjMQjN8HK36u7lTNlh8AHArIocY0zdTcz96lVV8okGWCzAq3q/Hen8zlHFMiyPH2NRbUAagWG4AZ/8PYI8XXbFkOgx2BeLTqqQEZSpSQNAQ3M9ctohAfm4MSwfYGsYBh71qaH5CdHDmkhMLkf1jyLvHz9pSpzy3NYeoxCH/DPJ55Dm2DQDic2D4D84tliKQfi7b9TKh/jw1uRCrL9/9BBZcOQQKcEmsCb9evORRUberkq/h7o1cHR4kZ7blEzKWKOJ/j2AgafRv3b1znU9EerRDxtl+UcN8sVDA2gNfh3GHCKSRTjiUyqlHNGktEZAuEvGF8jpjN2/3NQoTxOqjWmrTUni/lxU8Q1HFEuBRmJs0jGEaL82oYtWOLbDObhvX6VuU4tYi9aaRgQ88t+zyuU4oortAHMjSHDpjnfqZFdzVBaijcY6VP07G3wkT2fmbjyiEMNO3ap6zlGD6ibGAD8dwi88tsSYnLGCY/2sPLGAMoYzBHRK+qlDh47bjiuR/AwMpeVrM8bjBdw5vdiYGm4vG031UV1E7llfJ2MxDudMgvH0TDCHJWeDD7jnjy5ghi1HHkGVfsTYbR3n1ZC7DbWsEvhpaWKhT65lUqZdQjvKwFh/y7QhcnRJ8mS3TI8rAXX8v/awopSyVTst/ygo72JrXAX4Y3XoUBfRQcnR4Otii2smFUgD7tMvNjWkCg+MccHYfFwq/TWUT0+quq8GhElM0HQIAur+DCz5uZOKjHj+p5eMCwoVvzWlUCZYy6a+GkKBiz5okJEw58W0NbUDnSm5d59xLviAewwqfWZFrjyzs4nYOUaeiTIClM8c/HVE09TK72zSef7rJ6uEZshBuaW5brn92FImiczKMjybdlnDzV/HPrACrNPFT2wLGqHgy8YFmCbmgoOEvwukS+ttb38FoPMOzTPAfbwSdwlmSIIfl1MOYX4dxuhK0s5+FRfsWAxAW/WPWv4WHsPxuJVdTcoqGtkbBoO1A0yFuxtj8tT2ZmPoms6qog61Tlcr7eHzzgQfnHOQbF1+tRO/fnUVawyskyXcv4jJlDSvrp0U61mt836dOl37Jw383DClqN10aH8C5joJZppPkIiqMyadPKrVqKJN0hVAJxN2tjIWPwMpf97abJSps38ZtY5Neb19yZngQ7CxBT45Yohf1la1yt4m0DZbinSWE2Q55ZDM0rn4wwa57c06Yy1eOgEV1wvG5JNfgaBcTbwVgfjtxxVTtllR4pb1/xamir/JJM6Le+yP+Ve7Yjbxfyuf6pc3q1tkL/MPCr5PH2qr1lp2f3zO3NP+aI1ZJ4J1ZLHPcLNe3RMSDkM27xiEm4wVPh7r3S7tgch/2tbM0q2gPMW7XRqC+/btKcWSY6JE+fMOH2JIbQdCL/e+Xy/v7w0zkRNs55v08meW+XE7IavZZD7uaI6hicIylXaXB5xDcue0xEpFCDdZLWfSe6q+rYjAGFOHeDNa4rradjPGYQuA/vDtWtnLIg+7dObIXJmNTSGocA3S3MhYn2kY0fzP7WyRZRsbhUPX5R+7Q8biEbtyx8KUwzSe0I4+NiDLiXQYKmXIGZGn/TI5w66EvrvmTPAB+wgA1oWWlayhTwEf2hzJitxM6SXAT6y1R91WheRuAkN2SZd/3TRliFTghv0HsYLhHUikztTdxgxiNYEmbcs25hXeqdGpnP2TBoUm0/b0sV1D0srDuijU6hHsX0LfXXEo+C45BAlpRmJqUeMp6NPi0dgDmdImllMZVIbS/JqR/A/j/1qYwC7NxPpezGqgs3Wctnug7drDSLwOP+YETpTw7cYGe4NSyxmWs38kcU+bBlJ7xSnJkeArAXXY1NUyxFxSsNd7mejXiqbYpbN9JpK869q+O96tlZBRUCrZtRxdg6daIFNSdf1fhGm1Le3l8rnGiDPb5ypLb6C2o81D2O+efRF9ctV54ENYHXvV+tZtVC3Ww6G458VazjSBo/gY8QAr6ZD+Z9hs8dhm/U2m/VNHQSLllzuZoNmmQ08apfjplf0La7vCIuL9EnxpJDX2nZLSuuSAZkEcXaOBVyWFXjeMYGki99QO0A0zdsmPBBcq51hxIQ8/qCM/eadetrHAsivpGRaN/Jb5eONHXNIyWqtIu2UMV+nXnPjdQlnnNE/nPxRksN/fqsfar81gwatQBTRTekL6ddHFz3DVOptqqEO9hSYWZrSre0vmwg5m+/ZrH/3R4JKmvUzzOiXZUMoBTQN4jewVMPAXGf6XRc74qON4pjRcx1vL48ZzcEWU1xJmBl9Sw60TaRFG3ut71c1UlkpLaJjR+Zk9Do01pDNMadtYUM1O4PR7aaX32Vdngk/3N9VHDKkfXwiY0MuaPmCuPFOawPy6bQJDddXueEelOZ07UnPoZs4H1MjTy+nYk1Xd+InaLpvUiGW4ScestHyH0S6ttVLHrLR7NsX0ySVngg9x3q9PuFKHFRHGtWJFi99kjlz349mlmUzaGCFUu5tI8UomWZazpStT0uHmRxh5O5qowJY6caKLflbn2LublY2txjo+K8JuNMVkYhN1SP32oLKUM9C37V4mwvTZdQW/higd5vYJFX5xpbTSJRthjF0MC3bpSEKoY1T61XBIT5Srxt9P363jAAb7/E+y9+4JNl/qdKxtQnDPGJGbcYXPW/vC0qR+odlm6htGAGlaiU/Wsxhlr273Me/ZVtB3FzPoyL5rgG1NSKgGa3Qn7AlMr+rCzRp1ARQQCLcbqVzF2H3puP2bX8az5+G73wPAxjbb9AqQwk2Ef299o4aFILkpMXq17R5i8UWT+ng8Z5fycEG/PMZ+AUkUoH8P8yTcwLb8lDkVqa/AFnmUNYghrcQh/t7+1LPrcV9fg24a3VtJPP1b7MDVbdfPoq5N4ysGkf+PyZVL2C6te+qtSb99g3n1X7LyZ6/JMNYH+Az55fdM/PyFqVZTP2g+/ax7/cx6+JqauHcOK3KMefnUO8a3ddgKum8whXEobnbbaqO/7bSfaLIpqk8uOUQB2fRVpUhX6nLrK+NYIWOipI8CuM6rb8gwZ6+q/5vE7VPE2loFSKtBXo0U6hp7fZmfI1pRKj8lctIeXeVzC1vBMwWGlmwMSp1uGDTz81HnDi6ESXWNwRozRGxtSz9+di74qF2Nyb+5LyTnsKhDN0C0MwCtrmXsfGBDY/slKw3VBb+eRRmXjmfdXCbLXgGye1kLsnzW0ztuYRpYVwvbJW3rr1DrKQEhjEcNH4/GPfjN5ibjnB+njPfaB+eCDzDNmPQP45sPQ3qumJi6+VENssdQ/WuZxbNLOvbffXwZR7QU8uvIIAcQ3U6o+6vYG3A9mz/sYjs6RP0IG8OI3ytDaaK6AuyD+awY1rjE/+Jh8IPPiXsO+e9c8JVAqPffMja/j8qchySP0g2SJv1ouUbh7mCLtBLfLumS7p9yeMOiE8rlsyzRAouuJxjn88z6/XA6ewPskKfE+4gcPoOh167utRaY7SIOhToO13MZS7g3aWwizT7pemMObA5ng68Ao97vW9+A2vfIv7KWPkWCIeZfsAvuXp85bKvbty5Ha/zilHJD/dq6gB3RFKPjfNYLHtK2Vy/90T9sDcrdSL16cO3gwzAjUfXfm1Ysurfw5x/UJ6bwu8N86RUewO/OBp+OGuq9MigvsgNWd76ciY9t3RunM6v3Iv1PbUPyMqQ8XCt1w3ZrWDijA58hM+Wv3tvSjqv1qWfwQG56pVr2acTJQknV7reyQET39N+1rk4qiVZa71vL6M/Plib3ZzM6qBtpaeBnWW7j0CONvt01o8w4K69dA9CD6nBUblhbzWGJ9gsrtfTXWHsXtG7p7qDKlFsYni/uDDHXAONY0p9htutfadstbLmujKmHNV2FttFnHsUD0HkFJybng29QzSUv4yb9kEUZR3E44l3Hl0q+BkrMoR71r9I1b3WVcUiCHaFXIb0pC0HtHrK7BoX0wMZXLauBllc2ynUcxPAxa/KNJpjgAvyprNC9k8MZdpHn1teqpQHGtFUbdnX18bXsAB/iakR88fsNspwzePSghNunl4oRXW9jAB1yNxK5m/vSXnmU7dHW1AwohlfQzd7G0DhPYdDVsxrn+2igm9bUyDY0gWG9W4DXzR4PnlRurAy68bUaIpTOM/KsdElOTTn9KDaIrOsn1zDNOpU4+cWsvc/F+l5FsAdsDenSN85cNOyDIIGbo9ngmcczejTbnYy9xkoqEywrFT71s8uwF1YyrPyW83c0KJQizXgbCvySk8tlbL5PFqzZJ3/ErzdmD7pV36c26IA8kD3ga3chZCOE1uXZMwi26ImY5Vjhq3c3J9boaTyeP5X0N2GSl1D1GlPfiJv1OKB12+iiTJ2M06PWWIKfBF65Da3wRTTRIiR+ZMDHnME+Wb6pSQzrg3xOTs6M7XdAMaW3SvI1q/bKfbPKjJ23I/K88t3X9yW2cHvQ7RC9AVBeYn39+rp9xnpAzdeTpKO7sZzQBJTydbPoAg6AvJnInw4B/4wB+AckXg9oStEMPam4F/Nml+QrISC+AqmHMal1X5HnZoIn3ziAaTcrd3Um0HgALQA+rPdj+TfPdtXDs6W5Aq/A8jcTzaOHLl1B5E/P5lnwcrXomr9mbZzJILaFOOdi9oGvtGtjAN21/Q/G/H3M0nxxVL58ATtAD2HQQ5F2m64ZnoDi0eOknMSfHrn6L0wa/RiPY2pJjjyG5f9t3My3WGCScmpIjyvs/QKyTu23k8RggDhLs+JE0BrlbXbQKCi6TVqPQn0cUJYTHHqb41DVWjfG+66EV5Vj2qTcj9E4FePxUvbYX0zItgI74wNCzje9uk+e3cGuXYI8+ni2SLxJw6SCytYj17UnUF7j9iUcxHzhoblyDUek6I8sNAKKTv0+jZv2KkZiJQab/sBCuypI9j55TctjyCjmLKCJWO6fGZojZzEfP50NmLqgVFcR6cFQv2MvgPry2Sbt2j0zJbufzeBrb1T06E0A6VYP4GzCwBfjDZw4LHH+vnoA+rMpumfuQ1YJ7WFY0EOeNDKr8aISVtcOYR5gjP4Gj24Ph3l0YiiXm+rZrd7TbKwvWMlPrlSRV5f4GSt2khQ0aZo178mmZzv4JskN/Zs4u09/VOkoFnaciA/+GWb1phAfKEU7aJhYFYC+zKReojKB/tyK3tcNHrqKVyOLa1hToBFE/dGGZh1CNCUpl/iehf+zd8zPROw2UBSkZlbV6ITQGly+n/sajLF6JFrhUKRbJV3X0useD8VTl3XrwsvtqHI9yFnXCeqwoYtIdcZOJ4aMNABAN0k38MA3e9YGki6k1Z9BaWBwruK1EVfQu9sl6ua0xYSMEUMZIEYeBTmCX5jykyxa1gAC3STRwAXf7KEFNB2jdYwPG3CbD9i8mytuLHltnsr6SwMf/HSIBjig6d3t6Hs357k6KnLwXrZQYBD8bEGqF9o5CH4vEDVbihwEP1uQ6oV2DoLfC0TNliL/HyOEvS6Nh8GPAAAAAElFTkSuQmCC;" vertex="1" parent="1">
          <mxGeometry x="500" y="107.72999999999999" width="77" height="64.27" as="geometry" />
        </mxCell>
        <mxCell id="VL68fDzAvVWCmi46imba-19" value="&lt;font style=&quot;font-size: 24px;&quot;&gt;Azure Subnet&lt;/font&gt;" style="points=[[0,0],[0.25,0],[0.5,0],[0.75,0],[1,0],[1,0.25],[1,0.5],[1,0.75],[1,1],[0.75,1],[0.5,1],[0.25,1],[0,1],[0,0.75],[0,0.5],[0,0.25]];outlineConnect=0;gradientColor=none;html=1;whiteSpace=wrap;fontSize=12;fontStyle=0;container=1;pointerEvents=0;collapsible=0;recursiveResize=0;shape=mxgraph.aws4.group;grIcon=mxgraph.aws4.group_security_group;grStroke=0;strokeColor=#00A4A6;fillColor=#E6F6F7;verticalAlign=top;align=left;spacingLeft=30;fontColor=#147EBA;dashed=0;movable=0;resizable=0;rotatable=0;deletable=0;editable=0;locked=1;connectable=0;" vertex="1" parent="1">
          <mxGeometry x="750" y="60" width="180" height="160" as="geometry" />
        </mxCell>
        <mxCell id="VL68fDzAvVWCmi46imba-20" value="" style="image;aspect=fixed;html=1;points=[];align=center;fontSize=12;image=img/lib/azure2/other/Azure_A.svg;movable=0;resizable=0;rotatable=0;deletable=0;editable=0;locked=1;connectable=0;" vertex="1" parent="VL68fDzAvVWCmi46imba-19">
          <mxGeometry x="-20" width="63.63" height="60" as="geometry" />
        </mxCell>
        <mxCell id="VL68fDzAvVWCmi46imba-21" value="" style="verticalLabelPosition=bottom;html=1;verticalAlign=top;align=center;strokeColor=none;fillColor=#00BEF2;shape=mxgraph.azure.sql_database_sql_azure;movable=0;resizable=0;rotatable=0;deletable=0;editable=0;locked=1;connectable=0;" vertex="1" parent="VL68fDzAvVWCmi46imba-19">
          <mxGeometry x="80" y="55" width="47.5" height="50" as="geometry" />
        </mxCell>
        <mxCell id="VL68fDzAvVWCmi46imba-22" style="edgeStyle=orthogonalEdgeStyle;rounded=0;orthogonalLoop=1;jettySize=auto;html=1;" edge="1" parent="1" source="VL68fDzAvVWCmi46imba-8">
          <mxGeometry relative="1" as="geometry">
            <mxPoint x="830" y="140" as="targetPoint" />
          </mxGeometry>
        </mxCell>
      </root>
    </mxGraphModel>
  </diagram>
</mxfile>
